<svg data-name="コンポーネント 2 – 2" xmlns="http://www.w3.org/2000/svg" width="230" height="28.377"><defs><clipPath id="a"><path data-name="長方形 1222" fill="none" d="M0 0h230v28.377H0z"/></clipPath></defs><path data-name="パス 797" d="M76.092 14.518h9.169v-3.859h-9.169V4.203h10.489V.417H71.892v23.931h15.04v-3.789h-10.84z" fill="#111148"/><g data-name="グループ 1493"><g data-name="グループ 1492" clip-path="url(#a)" fill="#111148"><path data-name="パス 798" d="M126.8 12.4a12.159 12.159 0 10-24.314 0 12.215 12.215 0 0012.157 12.365 11.812 11.812 0 003.542-.521l2.536 4.133 3.091-1.841-2.362-3.855A12.5 12.5 0 00126.8 12.4m-7.468 6.808l-2.57-4.133-3.091 1.841 2.327 3.786a8.981 8.981 0 01-1.389.1c-4.55 0-7.85-3.821-7.85-8.406s3.3-8.44 7.85-8.44c4.585 0 7.954 3.855 7.954 8.44a8.571 8.571 0 01-3.23 6.808"/><path data-name="パス 799" d="M157.675 15.839a4.777 4.777 0 11-9.552 0V.417h-4.237v15.6c0 5.488 4.2 8.752 9.031 8.752 4.793 0 9-3.265 9-8.752V.417h-4.237z"/><path data-name="パス 800" d="M186.439.417l-9 23.932h4.516l2.049-5.87h9.413l2.084 5.87h4.481L191.028.417zm-1.146 14.38l3.435-9.726 3.4 9.726z"/><path data-name="パス 801" d="M220.692 20.56V.417h-4.237v23.931H230V20.56z"/><path data-name="長方形 1219" d="M11.654.173h26.181v3.216H11.654z"/><path data-name="長方形 1220" d="M0 11.48h26.181v3.216H0z"/><path data-name="長方形 1221" d="M11.654 22.786h26.181v3.216H11.654z"/></g></g></svg>