<?xml version="1.0" encoding="UTF-8"?>
<!-- Generator: Adobe Illustrator 27.0.1, SVG Export Plug-In . SVG Version: 6.00 Build 0)  -->
<svg xmlns="http://www.w3.org/2000/svg" xmlns:xlink="http://www.w3.org/1999/xlink" version="1.1" id="レイヤー_1" x="0px" y="0px" viewBox="0 0 205.6 49.5" style="enable-background:new 0 0 205.6 49.5;" xml:space="preserve">
<style type="text/css">
	.st0{clip-path:url(#SVGID_00000017485427696103630430000003491063962093008774_);}
	.st1{fill:#EE4522;}
	.st2{fill:#0080B6;}
	.st3{clip-path:url(#SVGID_00000009554490985113876000000010799255822495771070_);}
	.st4{fill:#FFFFFF;}
	.st5{fill:#FF5F3A;}
	.st6{fill:#FFAE58;}
	.st7{fill:#3E90CC;}
	.st8{fill:#77DDFF;}
	.st9{fill:#A9A9A9;}
</style>
<g id="グループ_3" transform="translate(-991.996 -530.981)">
	<g id="グループ_8" transform="translate(1047 541)">
		<g>
			<defs>
				<rect id="SVGID_1_" x="0" y="0" width="150.6" height="35.6"></rect>
			</defs>
			<clipPath id="SVGID_00000096057437334492685830000011058334319138837637_">
				<use xlink:href="#SVGID_1_" style="overflow:visible;"></use>
			</clipPath>
			<g id="グループ_7" style="clip-path:url(#SVGID_00000096057437334492685830000011058334319138837637_);">
				<path id="パス_22" class="st1" d="M0.2,31.9c2.2-0.5,4.4-1.3,6.4-2.4c-0.9-1-1.9-1.8-3-2.6c-0.4,0.2-0.6,0.3-1.3,0.7l-2.1-3.2      c2.7-1.4,5-3.5,6.7-6.1H1.3v-3.5h4.9v-2.7H0.4V8.6h5.8V5.8C5.1,6.6,4,7.4,2.8,8.1L0,4.9C4.5,2.6,5.6,1,6.2,0l4.6,0.6      C10.5,1.4,10,2.1,9.5,2.7h25.5v3.6h-3.9v2.4h4.9v3.5h-4.9v2.7h4v3.5h-3.7v2.4h3.4v3.6h-3.4v3.5h4.7v3.8h-4.7v3.7h-4.4v-3.7H16      v-3.8h2.7v-7.1h8.1v-2.4H11.4c-0.5,0.9-1,1.8-1.6,2.6h7.3v3.3c-2.2,4-5.3,8.1-14.5,11.4L0.2,31.9z M6.9,24.4      c-0.2,0.2-0.3,0.3-0.6,0.6c1.2,0.8,2.3,1.7,3.3,2.7c1.2-0.8,2.2-1.9,3-3.2H6.9z M9.9,8.6h3.2V6.2H9.9V8.6z M9.9,14.9h3.2v-2.7      H9.9V14.9z M16.8,8.6h3.4V6.2h-3.4L16.8,8.6z M16.8,14.9h3.4v-2.7h-3.4L16.8,14.9z M22.9,27.8h4v-3.5h-4V27.8z M23.8,8.6h3.5      V6.2h-3.5V8.6z M23.8,14.9h3.5v-2.7h-3.5V14.9z"></path>
				<path id="パス_23" class="st1" d="M54.3,12.7v3.6h-4.1v2.5h3.7v3.5h-3.7v2.5h3.7v3.5h-3.7v2.8h3.7v0.9      c0.7-1.9,1.1-3.8,1.3-5.8l2.8,0.3c-0.2,2.8-0.8,5.6-1.7,8.3l-2.4-1.1V35h-14V19.9c-0.7,0.5-0.7,0.6-1.2,0.9l-1.3-4.5      c3-2.7,5.3-6,6.8-9.6h-2.3v3.4h-3.3V2.8h6.5c0.2-1.2,0.3-1.6,0.4-2.6l4.4,0.1c-0.1,1.1-0.2,1.6-0.3,2.5h5.3v7.3h-2.6      c-0.2,0.5-0.8,1.9-1.1,2.5L54.3,12.7z M46.8,16.2h-3.1v2.6h3.1V16.2z M46.8,22.2h-3.1v2.6h3.1V22.2z M46.8,28.2h-3.1v2.9h3.1      V28.2z M51.2,9.4V6.8h-2.7c-0.7,2-1.7,4-2.8,5.9h1.9c0.5-1.2,0.9-2.3,1.3-3.6L51.2,9.4z M63,31.8c-0.2-1.2-0.7-4.3-0.9-5.2      l1.9-0.3c0.5,1.6,0.8,3.3,1,5l-0.8,0.2h2.4c0.8,0,1.2,0,1.5-1.1c0.2-0.9,0.4-4.9,0.4-5.8H56.4V2.8h4.6c0.3-0.9,0.6-1.8,0.8-2.7      l4.7,0.3c-0.3,0.9-0.3,0.9-1,2.4h6.2v12H60.6v1.9H73v3H60.6v1.8h11.8c-0.1,11.4-0.7,13.9-4.1,13.9h-3.9l-0.6-3.9L63,31.8z       M58.8,33.7c0.1-1.5,0.1-3.3,0.1-4.8c0-0.6,0-1.5-0.1-2.3h2.3c0.2,2.3,0.3,4.6,0.3,6.9L58.8,33.7z M67.5,5.9h-7v1.7h7V5.9z       M67.5,10h-7v1.9h7V10z M66.3,30.5c-0.3-1.5-0.7-3-1.3-4.4l1.8-0.4c0.5,1.4,0.9,2.8,1.3,4.2L66.3,30.5z"></path>
				<path id="パス_24" class="st2" d="M87.9,10.6c-1.8,6.9-4.1,13.6-6.8,20.1h-5.5c3.1-6.5,5.5-13.2,7.2-20.1h-5.3V6.1h6.4      c0.3-1.6,0.6-3.3,0.9-4.9h5.2c-0.3,1.7-0.6,3.3-0.9,4.9h6.4v4.5L87.9,10.6z M105,27.1c-0.3,5.4-4.1,7.8-9.5,7.8      c-6,0-9.8-2.9-9.8-7.6c0-4.6,3.8-7.7,9.5-7.7c1.7,0,3.4,0.2,5.1,0.6v-9.6h-2.9V6.1h12.7v4.5h-5v11.3c2,0.9,3.8,2.1,5.6,3.4v5.9      C108.9,29.8,107,28.4,105,27.1 M100.3,24.8c-1.6-0.6-3.2-0.9-4.9-0.9c-3.7,0-5.2,1.5-5.2,3.4c0,2.4,2.2,3.4,5.1,3.4      c3.1,0,5-1.4,5-5.2V24.8z"></path>
				<path id="パス_25" class="st2" d="M141.5,16.8c0.2,1.2,0.4,2.4,0.4,3.6c0,8.4-5.1,14.4-13.6,14.4c-8.6,0-13.4-5-13.4-12.4      c0-6.8,4.2-12,7.2-14.6h-8.2V3.1h14.5v4.8c-4.6,4-8.4,8.4-8.4,14.3c0,6,4.5,7.9,8,7.9c5.5,0,9.5-3.3,9.5-11.2      c0-4.7-2-10.3-4.4-16h5.1c0.6,1.2,1.1,2.3,1.6,3.3l3.1-5.1h3.2l-3.1,5.4h-3c1.7,3.5,4.3,6.5,7.4,8.9v6.3      C145,20.3,143.2,18.6,141.5,16.8 M144.3,6.5l3.1-5.4h3.1l-3.1,5.4H144.3z"></path>
			</g>
		</g>
	</g>
	<g id="グループ_2" transform="translate(991.996 530.981)">
		<g>
			<defs>
				<rect id="SVGID_00000078752702770770074320000015806827690040211094_" y="0" width="49.5" height="49.5"></rect>
			</defs>
			<clipPath id="SVGID_00000177467235781621678520000014740168191507515067_">
				<use xlink:href="#SVGID_00000078752702770770074320000015806827690040211094_" style="overflow:visible;"></use>
			</clipPath>
			<g id="グループ_1" style="clip-path:url(#SVGID_00000177467235781621678520000014740168191507515067_);">
				<path id="パス_1" class="st4" d="M26.5,24.7v-4h-1.1c-0.3,1-0.5,2.1-0.6,3.1 M49.5,12.2v0.2h-1.9v3.9h1.9v0.4h-4v3.7h4v0.4      h-1.9v0.1c0,0.5,0,1.1,0,1.6c0,0.8,0,1.6,0,2.3h-0.4c0,0,0,0,0-0.1c0-1.3,0-2.6,0-3.8c0-0.1,0-0.1-0.1-0.1c-1.2,0-2.4,0-3.6,0      c0,0,0,0-0.1,0v3.7c0,0.1,0,0.2,0,0.3h-0.4v-4h-3.8c0,0.6,0,1.2,0,1.8c0,0.7,0,1.4,0,2.2h-0.4c0,0,0-0.1,0-0.1      c0-1.3,0-2.5,0-3.8v-0.1h-0.1c-1.2,0-2.4,0-3.5,0c-0.1,0-0.1,0-0.1,0.1c0,1.3,0,2.5,0,3.8c0,0,0,0.1,0,0.1h-0.4v-4h-3.8v0.1      c0,0.6,0,1.2,0,1.9c0,0.7,0,1.4,0,2h-0.4c0,0,0,0,0,0c0-1.3,0-2.6,0-3.9c0,0,0,0,0-0.1H27c-0.1,0-0.1,0-0.1,0.1      c0,1.3,0,2.5,0,3.8v0.1 M24.8,24.8C24.8,24.8,24.7,24.8,24.8,24.8C24.7,24.8,24.7,24.7,24.8,24.8 M36.9,16.7H29v3.7h7.8V16.7z       M37.3,16.7v3.7H45c0.1,0,0.1,0,0.1-0.1c0-1.2,0-2.4,0-3.6c0,0,0,0,0-0.1L37.3,16.7z M39.4,16.2L39.4,16.2c1.3,0,2.5,0,3.7,0      c0.1,0,0.1,0,0.1-0.1c0-1.2,0-2.5,0-3.7v-0.1h-3.8L39.4,16.2z M43.5,12.4v3.8c0,0.1,0,0.1,0.1,0.1h3.5c0.1,0,0.1,0,0.1-0.1      c0-1.2,0-2.5,0-3.7c0,0,0,0,0-0.1H43.5z M35.2,12.5L35.2,12.5c0,1.3,0,2.5,0,3.7c0,0.1,0,0.1,0.1,0.1h3.5c0.1,0,0.1,0,0.1-0.1      c0-1.2,0-2.5,0-3.7c0,0,0,0,0-0.1h-0.1c-0.6,0-1.2,0-1.8,0c-0.3,0-0.6,0-0.9,0C35.8,12.4,35.6,12.5,35.2,12.5 M31.1,16.3      L31.1,16.3c1.3,0,2.5,0,3.7,0c0.1,0,0.1,0,0.1-0.1c0-1.2,0-2.3,0-3.5v-0.1c0,0-0.1,0-0.1,0c-1.3,0.2-2.5,0.7-3.6,1.3      c0,0-0.1,0.1-0.1,0.1C31.1,14.7,31.1,15.5,31.1,16.3L31.1,16.3 M27.8,16.7c-0.9,1.1-1.7,2.3-2.2,3.7h3v-3.7L27.8,16.7z       M30.7,14.2c-0.9,0.6-1.8,1.2-2.5,2h0.1c0.8,0,1.6,0,2.3,0c0.1,0,0.1,0,0.1-0.1c0-0.4,0-0.8,0-1.3L30.7,14.2"></path>
				<path id="パス_2" class="st5" d="M47.6,24.8c0-0.8,0-1.6,0-2.3v-1.7h1.9v-0.4h-4v-3.7h4v-0.4h-1.9v-3.9h1.9v12.4L47.6,24.8z"></path>
				<path id="パス_4" class="st5" d="M31.1,24.8c0-0.7,0-1.4,0-2v-1.9h3.8v4H31.1z"></path>
				<path id="パス_5" class="st5" d="M39.3,24.8c0-0.7,0-1.4,0-2.2v-1.8h3.8v4H39.3z"></path>
				<path id="パス_6" class="st6" d="M43.5,24.8c0-0.1,0-0.2,0-0.3v-3.7c0,0,0,0,0.1,0c1.2,0,2.4,0,3.6,0c0.1,0,0.1,0,0.1,0.1      c0,1.3,0,2.6,0,3.8c0,0,0,0,0,0.1L43.5,24.8z"></path>
				<path id="パス_7" class="st6" d="M35.2,24.8c0,0,0-0.1,0-0.1c0-1.3,0-2.5,0-3.8c0-0.1,0-0.1,0.1-0.1c1.2,0,2.4,0,3.5,0h0.1      v0.1c0,1.3,0,2.5,0,3.8c0,0,0,0.1,0,0.1L35.2,24.8z"></path>
				<rect id="長方形_1" x="29" y="16.7" class="st5" width="7.8" height="3.7"></rect>
				<path id="パス_8" class="st6" d="M37.3,16.7h7.8c0,0,0,0,0,0.1c0,1.2,0,2.4,0,3.6c0,0.1,0,0.1-0.1,0.1h-7.7L37.3,16.7z"></path>
				<path id="パス_9" class="st5" d="M39.4,16.2v-3.9h3.8v0.1c0,1.2,0,2.5,0,3.7c0,0.1,0,0.1-0.1,0.1      C41.8,16.2,40.6,16.2,39.4,16.2L39.4,16.2z"></path>
				<path id="パス_10" class="st6" d="M43.5,12.4h3.7c0,0,0,0,0,0.1v3.7c0,0.1,0,0.1-0.1,0.1h-3.5c-0.1,0-0.1,0-0.1-0.1L43.5,12.4      L43.5,12.4z"></path>
				<path id="パス_11" class="st6" d="M35.2,12.5c0.3,0,0.6-0.1,0.9-0.1c0.3,0,0.6,0,0.9,0c0.6,0,1.2,0,1.8,0h0.1c0,0,0,0.1,0,0.1      c0,1.2,0,2.5,0,3.7c0,0.1,0,0.1-0.1,0.1h-3.5c-0.1,0-0.1,0-0.1-0.1C35.2,15,35.2,13.8,35.2,12.5L35.2,12.5z"></path>
				<path id="パス_12" class="st5" d="M31.1,16.2L31.1,16.2c0-0.8,0-1.5,0-2.2c0,0,0-0.1,0.1-0.1c1.1-0.6,2.4-1.1,3.6-1.3      c0,0,0,0,0.1,0v0.1c0,1.2,0,2.3,0,3.5c0,0.1,0,0.1-0.1,0.1C33.6,16.2,32.4,16.2,31.1,16.2L31.1,16.2z"></path>
				<path id="パス_13" class="st6" d="M27.8,16.7h0.8v3.7h-3C26.1,19,26.8,17.8,27.8,16.7"></path>
				<path id="パス_14" class="st6" d="M30.7,14.2v0.7c0,0.4,0,0.8,0,1.3c0,0.1,0,0.1-0.1,0.1c-0.8,0-1.6,0-2.3,0h-0.1      C28.9,15.5,29.7,14.8,30.7,14.2"></path>
				<path id="パス_15" class="st4" d="M24.3,28.4c-0.1,0-0.2,0-0.3,0.1c-0.3,0-0.6,0-0.8-0.2c-0.3-0.2-0.4-0.4-0.5-0.7      c0-0.1,0-0.3,0-0.4c0-0.5-0.3-1-0.7-1.3c-0.3-0.3-0.8-0.5-1.2-0.4c-0.7,0-1.4,0.4-1.7,1.1c-0.1,0.2-0.2,0.5-0.2,0.7      c0,0.2-0.1,0.5-0.2,0.7c-0.2,0.3-0.6,0.6-1,0.6c-0.2,0-0.5,0-0.7-0.1c-0.2-0.1-0.4-0.3-0.5-0.5c-0.1-0.1-0.2-0.3-0.2-0.5      c0-0.1,0-0.3,0-0.4c-0.1-0.5-0.3-0.9-0.7-1.3c-0.7-0.6-1.8-0.5-2.4,0.1c-0.3,0.2-0.4,0.5-0.5,0.9c0,0.2-0.1,0.4-0.1,0.6      c0,0.3-0.1,0.5-0.3,0.7c-0.2,0.2-0.5,0.4-0.8,0.4c-0.4,0-0.7-0.1-1-0.3c-0.2-0.2-0.4-0.6-0.4-0.9c0-1-0.8-1.9-1.9-1.9      c-0.1,0-0.3,0-0.4,0c-0.6,0.1-1.1,0.5-1.3,1c-0.1,0.2-0.2,0.5-0.2,0.8c0,0.3-0.1,0.7-0.3,0.9c-0.2,0.2-0.5,0.4-0.8,0.4      c-0.2,0-0.5,0-0.7-0.1c-0.2-0.1-0.4-0.3-0.5-0.5c-0.1-0.1-0.2-0.3-0.2-0.4c0-0.1,0-0.3,0-0.4c0-0.5-0.3-1-0.7-1.3      c-0.5-0.4-1.3-0.5-1.9-0.2c-0.4,0.2-0.8,0.5-1,0.9C0.1,26.7,0,27,0,27.4c0,0.7,0,1.4,0,2.1c0,0,0,0,0,0.1      c0.2,0.1,0.3,0.3,0.5,0.5c0.3,0.4,0.5,0.9,0.5,1.4c0,0.1,0,0.3,0.1,0.4c0.1,0.2,0.3,0.3,0.5,0.4c0.2,0.1,0.5,0.1,0.7-0.1      c0.2-0.1,0.3-0.3,0.4-0.5c0-0.1,0-0.1,0-0.2c0-0.6,0.3-1.3,0.7-1.7C4,29.2,4.7,29,5.4,29.1c1.1,0.2,1.9,1.1,1.9,2.2      c0,0.2,0,0.3,0.1,0.4c0.1,0.2,0.3,0.4,0.5,0.4c0.2,0.1,0.5,0,0.6-0.1c0.1-0.1,0.2-0.2,0.3-0.3C9,31.7,9,31.5,9,31.4      c0-0.1,0-0.3,0-0.4c0.2-1.2,1.4-2.1,2.6-1.8c0.6,0.1,1,0.4,1.4,0.8c0.3,0.4,0.5,0.9,0.5,1.4c0,0.1,0,0.3,0.1,0.4      c0.1,0.1,0.1,0.2,0.2,0.3c0.2,0.1,0.4,0.2,0.6,0.2c0.2,0,0.4-0.1,0.5-0.2c0.2-0.1,0.3-0.3,0.3-0.5c0-0.1,0-0.3,0-0.4      c0.2-1.2,1.3-2.1,2.6-1.9c1.1,0.2,2,1.1,2,2.2c0,0.2,0,0.3,0.1,0.4c0.1,0.2,0.3,0.3,0.5,0.4c0.2,0.1,0.4,0,0.6-0.1      c0.1-0.1,0.2-0.2,0.3-0.3c0.1-0.1,0.1-0.2,0.1-0.4c0-0.7,0.3-1.3,0.7-1.7c0.4-0.4,0.9-0.6,1.5-0.6c0.1,0,0.2,0,0.3,0L24.3,28.4       M23.9,29.5C23.9,29.5,23.8,29.5,23.9,29.5c-1.1,0-1.9,0.8-2,1.8c0,0.1,0,0.2,0,0.3c0,0.2-0.1,0.3-0.2,0.4      c-0.1,0.2-0.3,0.3-0.5,0.4c-0.3,0.1-0.6,0.2-0.8,0.1c-0.3,0-0.5-0.2-0.7-0.4c-0.2-0.2-0.4-0.5-0.3-0.9c0-1-0.8-1.9-1.9-1.9      c-0.4,0-0.9,0.2-1.2,0.4c-0.4,0.3-0.6,0.8-0.7,1.3c0,0.1,0,0.3,0,0.4c-0.1,0.3-0.3,0.6-0.6,0.8c-0.3,0.1-0.6,0.2-0.9,0.1      c-0.6-0.1-1-0.6-1-1.2c0-0.5-0.2-0.9-0.5-1.2c-0.4-0.4-0.9-0.7-1.4-0.7c-0.7,0-1.3,0.3-1.6,0.9c-0.2,0.3-0.3,0.6-0.3,0.9      c0,0.3-0.1,0.5-0.2,0.7c-0.1,0.2-0.3,0.3-0.5,0.4c-0.1,0.1-0.3,0.1-0.5,0.1c-0.4,0.1-0.8-0.1-1.1-0.5C7.1,32,7,31.9,6.9,31.7      c0-0.1,0-0.3,0-0.4c0-0.5-0.3-1.1-0.7-1.4c-0.4-0.3-1-0.5-1.5-0.4c-0.6,0.1-1.1,0.5-1.3,1c-0.1,0.2-0.2,0.5-0.2,0.8      c0,0.3-0.1,0.5-0.2,0.7c-0.1,0.2-0.3,0.3-0.5,0.4c-0.3,0.1-0.6,0.2-0.8,0.1c-0.3,0-0.5-0.2-0.7-0.4c-0.2-0.2-0.3-0.5-0.3-0.8      c0-0.4-0.1-0.7-0.3-1c-0.1-0.1-0.2-0.3-0.3-0.4v4.3c0.1-0.1,0.2-0.2,0.3-0.4c0.5-0.4,1.1-0.7,1.7-0.6c0.6,0,1.2,0.4,1.6,0.9      c0.3,0.4,0.5,0.9,0.5,1.4c0,0.2,0,0.3,0.1,0.4c0.1,0.2,0.3,0.3,0.5,0.4c0.3,0.1,0.6,0.1,0.8-0.1c0.2-0.1,0.3-0.4,0.4-0.6      c0-0.2,0-0.3,0-0.5c0.2-1.2,1.3-2,2.4-1.9c1.2,0.1,2.1,1.1,2.1,2.2c0,0.2,0,0.3,0.1,0.4c0.1,0.2,0.3,0.3,0.5,0.4      c0.2,0.1,0.5,0.1,0.7-0.1c0.1-0.1,0.3-0.2,0.3-0.4c0-0.1,0.1-0.2,0.1-0.3c0-0.1,0-0.3,0-0.4c0.2-1.2,1.4-2.1,2.6-1.8      c0.5,0.1,1,0.4,1.4,0.8c0.3,0.4,0.5,0.9,0.5,1.4c0,0.2,0.1,0.3,0.1,0.5c0,0.1,0.1,0.1,0.1,0.2c0,0,0.1,0,0.1,0      c0.4-0.2,0.8-0.4,1.2-0.6c0.1-0.1,0.2-0.1,0.1-0.2c0,0,0-0.1,0-0.1c0.1-0.6,0.4-1.2,0.9-1.6c0.5-0.4,1.2-0.5,1.9-0.4      c0,0,0.1,0,0.1,0c0.2-0.3,0.5-0.5,0.7-0.8c0.6-0.7,1.1-1.4,1.5-2.2C23.6,30.1,23.8,29.8,23.9,29.5 M24.8,24.8H0.1v1.2      c0,0,0,0,0,0c0.1-0.2,0.3-0.3,0.5-0.5C1,25,1.7,24.9,2.3,25c0.6,0.1,1.1,0.4,1.4,0.8c0.3,0.4,0.5,0.9,0.5,1.4      c0,0.2,0,0.3,0.1,0.4c0.1,0.2,0.3,0.3,0.5,0.4c0.3,0.1,0.6,0.1,0.8-0.1c0.2-0.1,0.3-0.4,0.4-0.6c0-0.2,0-0.3,0-0.5      c0.2-1.2,1.4-2,2.6-1.8c0.6,0.1,1.1,0.4,1.4,0.8c0.3,0.4,0.5,0.9,0.5,1.4c0,0.2,0.1,0.4,0.2,0.5c0.1,0.1,0.2,0.2,0.4,0.3      c0.3,0.1,0.6,0.1,0.8-0.1c0.2-0.1,0.3-0.3,0.4-0.6c0-0.1,0-0.3,0-0.4c0.2-1.2,1.3-2.1,2.6-1.9c1.1,0.2,2,1.1,2,2.2      c0,0.1,0,0.3,0.1,0.4c0.1,0.2,0.3,0.3,0.4,0.4c0.1,0,0.2,0.1,0.3,0.1c0.2,0,0.4-0.1,0.5-0.2c0.2-0.1,0.3-0.3,0.3-0.5      c0-0.1,0-0.2,0-0.3c0-0.6,0.3-1.1,0.7-1.4c0.5-0.5,1.2-0.7,1.9-0.6c1.1,0.2,1.8,1.1,1.9,2.1c0,0.2,0,0.3,0.1,0.5      c0.1,0.2,0.3,0.3,0.5,0.4c0.1,0,0.1,0,0.2,0c0.2,0,0.5-0.1,0.6-0.2c0,0,0,0,0-0.1c0.1-0.3,0.1-0.5,0.2-0.8      c0-0.2,0.1-0.3,0.1-0.5s0-0.3,0-0.5s0-0.3,0-0.5c0-0.1,0-0.2,0-0.3S24.8,24.9,24.8,24.8 M21,33.7c-1-0.1-2,0.6-2.1,1.6      c0,0,0,0,0,0C19.6,34.9,20.3,34.4,21,33.7"></path>
				<path id="パス_16" class="st7" d="M0,37.1v-1.5c0-0.8,0.4-1.4,1.1-1.7c0.6-0.3,1.3-0.2,1.9,0.2c0.4,0.3,0.7,0.8,0.7,1.4      c0,0.1,0,0.3,0,0.4c0,0.2,0.1,0.3,0.2,0.5c0.1,0.1,0.3,0.3,0.4,0.4c0.2,0.1,0.5,0.1,0.7,0.1c0.2,0,0.3-0.1,0.4-0.1      c0.2-0.1,0.4-0.3,0.5-0.4c0.1-0.2,0.2-0.5,0.2-0.7c0-0.3,0.1-0.6,0.3-0.9c0.3-0.5,0.8-0.8,1.4-0.9c0.9-0.1,1.8,0.5,2,1.4      c0,0.1,0,0.3,0,0.4c0,0.3,0.1,0.6,0.3,0.9c0.2,0.2,0.4,0.3,0.7,0.4c0.3,0.1,0.6,0,0.8-0.1c0.2-0.1,0.3-0.3,0.5-0.4      c0.1-0.2,0.2-0.5,0.2-0.7c0-1,0.8-1.9,1.9-1.9c1,0,1.9,0.8,1.9,1.9l0,0c0,0.3,0.1,0.6,0.3,0.8c0,0-0.1,0-0.1,0      c-0.5,0.2-1.1,0.3-1.6,0.4c-0.3,0.1-0.6,0.1-0.9,0.1c-0.2,0-0.5,0.1-0.7,0.1c-0.3,0-0.6,0-0.9,0c0,0,0,0,0,0H0z"></path>
				<path id="パス_17" class="st7" d="M24.3,28.4l-0.2,0.7c-0.1,0-0.2,0-0.3,0c-0.5,0-1.1,0.2-1.5,0.6c-0.5,0.4-0.8,1.1-0.7,1.7      c0,0.1,0,0.3-0.1,0.4c-0.1,0.1-0.2,0.2-0.3,0.3c-0.2,0.1-0.4,0.2-0.6,0.1c-0.2-0.1-0.4-0.2-0.5-0.4c-0.1-0.1-0.1-0.3-0.1-0.4      c0-1.3-1.1-2.3-2.3-2.2c-1.1,0-2.1,0.9-2.2,2c0,0.1,0,0.3,0,0.4c0,0.2-0.1,0.4-0.3,0.5c-0.1,0.1-0.3,0.2-0.5,0.2      c-0.2,0-0.4-0.1-0.6-0.2c-0.1-0.1-0.2-0.2-0.2-0.3c-0.1-0.1-0.1-0.3-0.1-0.4c0-1.3-1.1-2.3-2.3-2.2c-0.5,0-1,0.2-1.4,0.5      c-0.4,0.3-0.7,0.8-0.8,1.4c0,0.1,0,0.3,0,0.4c0,0.1,0,0.2-0.1,0.3c-0.1,0.1-0.2,0.2-0.3,0.3c-0.2,0.1-0.4,0.2-0.6,0.1      c-0.2-0.1-0.4-0.2-0.5-0.4c-0.1-0.1-0.1-0.3-0.1-0.4c0-0.5-0.2-1-0.5-1.4c-0.3-0.5-0.9-0.8-1.4-0.8C4.7,29,4,29.2,3.5,29.7      c-0.5,0.4-0.8,1-0.7,1.7c0,0.1,0,0.2,0,0.2c-0.1,0.2-0.2,0.4-0.4,0.5c-0.2,0.2-0.5,0.2-0.7,0.1c-0.2-0.1-0.4-0.2-0.5-0.4      c-0.1-0.1-0.1-0.3-0.1-0.4c0-0.5-0.2-1-0.5-1.4c-0.1-0.2-0.3-0.3-0.5-0.5c0,0,0,0,0-0.1c0-0.7,0-1.4,0-2.1      c0-0.3,0.1-0.6,0.2-0.9c0.2-0.4,0.5-0.8,1-0.9c0.6-0.3,1.4-0.2,1.9,0.2c0.4,0.3,0.7,0.8,0.7,1.3c0,0.1,0,0.3,0,0.4      c0,0.2,0.1,0.3,0.2,0.4c0.1,0.2,0.3,0.4,0.5,0.5c0.2,0.1,0.4,0.1,0.7,0.1c0.3,0,0.6-0.2,0.8-0.4c0.2-0.2,0.4-0.6,0.3-0.9      c0-0.3,0.1-0.6,0.2-0.8C7,25.5,8.1,25.1,9,25.5c0.2,0.1,0.4,0.3,0.6,0.5c0.3,0.3,0.5,0.8,0.4,1.2c0,0.3,0.1,0.7,0.4,0.9      c0.3,0.3,0.6,0.4,1,0.3c0.3,0,0.6-0.2,0.8-0.4c0.2-0.2,0.3-0.5,0.3-0.7c0-0.2,0-0.4,0.1-0.6c0.1-0.3,0.3-0.7,0.5-0.9      c0.7-0.6,1.7-0.7,2.4-0.1c0.4,0.3,0.6,0.8,0.7,1.3c0,0.1,0,0.3,0,0.4c0,0.2,0.1,0.3,0.2,0.5c0.2,0.4,0.7,0.6,1.2,0.6      c0.4,0,0.7-0.2,1-0.6c0.1-0.2,0.2-0.5,0.2-0.7c0-0.2,0.1-0.5,0.2-0.7c0.3-0.7,0.9-1.1,1.7-1.1c0.5,0,0.9,0.1,1.2,0.4      c0.4,0.3,0.6,0.8,0.7,1.3c0,0.1,0,0.3,0,0.4c0.1,0.3,0.3,0.6,0.5,0.7c0.2,0.2,0.5,0.2,0.8,0.2C24.1,28.4,24.2,28.4,24.3,28.4"></path>
				<path id="パス_18" class="st8" d="M23.9,29.5c-0.1,0.3-0.3,0.6-0.4,0.9c-0.4,0.8-0.9,1.6-1.5,2.2c-0.2,0.3-0.5,0.5-0.7,0.8      c0,0-0.1,0-0.1,0c-0.6-0.2-1.3,0-1.9,0.4c-0.5,0.4-0.9,1-0.9,1.6c0,0,0,0.1,0,0.1c0,0.1,0,0.2-0.1,0.2c-0.4,0.2-0.8,0.4-1.2,0.6      c0,0-0.1,0-0.1,0c-0.1-0.1-0.1-0.1-0.1-0.2c-0.1-0.1-0.1-0.3-0.1-0.5c0-0.5-0.2-1-0.5-1.4c-0.8-1-2.2-1.2-3.2-0.4      c-0.4,0.3-0.7,0.8-0.8,1.4c0,0.1,0,0.3,0,0.4c0,0.1,0,0.2-0.1,0.3c-0.1,0.1-0.2,0.3-0.3,0.4c-0.2,0.2-0.5,0.2-0.7,0.1      c-0.2-0.1-0.4-0.2-0.5-0.4c-0.1-0.1-0.1-0.3-0.1-0.4c0-1.2-0.9-2.1-2.1-2.2c-1.2-0.1-2.2,0.7-2.4,1.9c0,0.2,0,0.3,0,0.5      c0,0.2-0.2,0.5-0.4,0.6c-0.2,0.2-0.5,0.2-0.8,0.1c-0.2-0.1-0.4-0.2-0.5-0.4c-0.1-0.1-0.1-0.3-0.1-0.4c0-0.5-0.2-1-0.5-1.4      c-0.4-0.5-1-0.8-1.6-0.9c-0.6-0.1-1.3,0.1-1.7,0.6c-0.1,0.1-0.2,0.2-0.3,0.4V30c0.1,0.1,0.2,0.2,0.3,0.4c0.2,0.3,0.3,0.7,0.3,1      c0,0.3,0.1,0.6,0.3,0.8c0.2,0.2,0.4,0.4,0.7,0.4c0.3,0.1,0.6,0,0.8-0.1C2.7,32.4,2.9,32.2,3,32c0.1-0.2,0.2-0.5,0.2-0.7      c0-0.3,0.1-0.5,0.2-0.8c0.3-0.5,0.7-0.9,1.3-1c0.5-0.1,1.1,0,1.5,0.4c0.4,0.3,0.7,0.8,0.7,1.4c0,0.1,0,0.3,0,0.4      c0,0.2,0.1,0.3,0.2,0.4c0.3,0.3,0.7,0.5,1.1,0.5c0.2,0,0.3-0.1,0.5-0.1c0.2-0.1,0.4-0.3,0.5-0.4c0.1-0.2,0.2-0.5,0.2-0.7      c0-0.3,0.1-0.6,0.3-0.9c0.3-0.6,0.9-0.9,1.6-0.9c0.6,0,1.1,0.2,1.4,0.7c0.3,0.3,0.5,0.8,0.5,1.2c0,0.6,0.4,1.1,1,1.2      c0.3,0.1,0.6,0,0.9-0.1c0.3-0.2,0.5-0.5,0.6-0.8c0-0.1,0-0.3,0-0.4c0-0.5,0.3-1,0.7-1.3c0.3-0.3,0.8-0.5,1.2-0.4      c1,0,1.9,0.8,1.9,1.9c0,0,0,0,0,0c0,0.3,0.1,0.6,0.3,0.9c0.2,0.2,0.4,0.3,0.7,0.4c0.3,0.1,0.6,0,0.8-0.1      c0.2-0.1,0.3-0.3,0.5-0.4c0.1-0.1,0.2-0.3,0.2-0.4c0-0.1,0-0.2,0-0.3C22,30.3,22.8,29.5,23.9,29.5      C23.8,29.5,23.9,29.5,23.9,29.5"></path>
				<path id="パス_19" class="st8" d="M24.8,24.8c0,0.1,0,0.2,0,0.3s0,0.2,0,0.3c0,0.2,0,0.3,0,0.5s0,0.3,0,0.5s0,0.3-0.1,0.5      c-0.1,0.3-0.1,0.5-0.2,0.8c0,0,0,0.1,0,0.1C24.2,28,24,28.1,23.8,28c-0.1,0-0.1,0-0.2,0c-0.2-0.1-0.4-0.2-0.5-0.4      c-0.1-0.2-0.1-0.3-0.1-0.5c0-1.1-0.8-2-1.9-2.1c-0.7-0.1-1.4,0.1-1.9,0.6c-0.4,0.4-0.7,0.9-0.7,1.4c0,0.1,0,0.2,0,0.3      c0,0.2-0.1,0.4-0.3,0.5c-0.1,0.1-0.3,0.2-0.5,0.2c-0.1,0-0.2,0-0.3-0.1c-0.2-0.1-0.3-0.2-0.4-0.4c-0.1-0.1-0.1-0.3-0.1-0.4      c0-1.3-1.1-2.3-2.3-2.2c-1.1,0-2,0.9-2.2,2c0,0.1,0,0.3,0,0.4c0,0.2-0.2,0.4-0.4,0.6c-0.2,0.2-0.5,0.2-0.8,0.1      c-0.2-0.1-0.3-0.2-0.4-0.3c-0.1-0.2-0.2-0.3-0.2-0.5c0-0.5-0.2-1-0.5-1.4c-0.8-1-2.2-1.2-3.2-0.4c-0.4,0.3-0.8,0.8-0.8,1.4      c0,0.2,0,0.3,0,0.5c0,0.2-0.2,0.5-0.4,0.6C5.3,28.1,5,28.1,4.7,28c-0.2-0.1-0.4-0.2-0.5-0.4c-0.1-0.1-0.1-0.3-0.1-0.4      c0-0.5-0.2-1-0.5-1.4c-0.3-0.4-0.8-0.7-1.4-0.8c-0.6-0.1-1.3,0-1.8,0.4c-0.2,0.1-0.3,0.3-0.5,0.5c0,0,0,0,0,0v-1.2L24.8,24.8z"></path>
				<path id="パス_20" class="st7" d="M21,33.7c-0.6,0.6-1.4,1.2-2.1,1.6C19,34.3,19.9,33.6,21,33.7C21,33.7,21,33.7,21,33.7"></path>
				<path id="パス_21" class="st9" d="M12.4,0h12.3c0,0,0.1,0,0.1,0.1c0,8.2,0,16.5,0,24.7h0c-0.4,0-0.9,0-1.3,0      c-0.4,0-0.7-0.1-1.1-0.2c-1-0.2-2.1-0.5-3-1c-1.3-0.6-2.5-1.5-3.6-2.6c-0.5-0.5-0.9-1-1.2-1.5c-1.2-1.8-2-3.9-2.1-6.1      c0-0.3,0-0.7,0-1C12.4,8.2,12.4,4.2,12.4,0C12.4,0.1,12.4,0,12.4,0"></path>
				<path id="パス_22-2" class="st9" d="M37.2,49.5H24.8c0,0-0.1,0-0.1-0.1c0-8.2,0-16.5,0-24.7h0c0.4,0,0.9,0,1.3,0      c0.4,0,0.7,0.1,1.1,0.2c1,0.2,2.1,0.5,3,1c1.3,0.6,2.5,1.5,3.6,2.6c0.5,0.5,0.9,1,1.2,1.5c1.2,1.8,2,3.9,2.1,6.1      c0,0.3,0,0.7,0,1C37.2,41.3,37.2,45.4,37.2,49.5C37.2,49.5,37.2,49.5,37.2,49.5"></path>
			</g>
		</g>
	</g>
</g>
<path class="st6" d="M26.9,24.8L26.9,24.8L26.9,24.8h3.7c0,0,0,0,0,0c0-1.3,0-2.6,0-3.9c0,0,0,0,0-0.1H27c-0.1,0-0.1,0-0.1,0.1  c0,1.3,0,2.5,0,3.8L26.9,24.8"></path>
<path class="st5" d="M26.5,24.7v-4h-1.1c-0.3,1-0.5,2.1-0.6,3.1l0,0.9L26.5,24.7L26.5,24.7L26.5,24.7"></path>
</svg>
